<mxfile host="app.diagrams.net" agent="Mozilla/5.0 (Windows NT 10.0; Win64; x64) AppleWebKit/537.36 (KHTML, like Gecko) Chrome/134.0.0.0 Safari/537.36" version="26.1.0">
  <diagram name="Page-1" id="iTsX3t-aBjWulHhGzkNG">
    <mxGraphModel dx="1354" dy="600" grid="1" gridSize="10" guides="1" tooltips="1" connect="1" arrows="1" fold="1" page="1" pageScale="1" pageWidth="827" pageHeight="1169" math="0" shadow="0">
      <root>
        <mxCell id="0" />
        <mxCell id="1" parent="0" />
        <mxCell id="0Yo_I8ake6-2doRQG3Em-1" value="" style="rounded=0;whiteSpace=wrap;html=1;" parent="1" vertex="1">
          <mxGeometry x="280" y="50" width="460" height="560" as="geometry" />
        </mxCell>
        <mxCell id="0Yo_I8ake6-2doRQG3Em-2" value="Lovski čuvaj" style="shape=umlActor;verticalLabelPosition=bottom;verticalAlign=top;html=1;outlineConnect=0;" parent="1" vertex="1">
          <mxGeometry x="130" y="120" width="30" height="60" as="geometry" />
        </mxCell>
        <mxCell id="0Yo_I8ake6-2doRQG3Em-3" value="Starešina" style="shape=umlActor;verticalLabelPosition=bottom;verticalAlign=top;html=1;outlineConnect=0;" parent="1" vertex="1">
          <mxGeometry x="130" y="390" width="30" height="60" as="geometry" />
        </mxCell>
        <mxCell id="0Yo_I8ake6-2doRQG3Em-4" value="Gospodar" style="shape=umlActor;verticalLabelPosition=bottom;verticalAlign=top;html=1;outlineConnect=0;" parent="1" vertex="1">
          <mxGeometry x="130" y="240" width="30" height="60" as="geometry" />
        </mxCell>
        <mxCell id="0Yo_I8ake6-2doRQG3Em-5" value="Izdelava poročila" style="ellipse;whiteSpace=wrap;html=1;" parent="1" vertex="1">
          <mxGeometry x="520" y="110" width="85" height="50" as="geometry" />
        </mxCell>
        <mxCell id="0Yo_I8ake6-2doRQG3Em-6" value="" style="endArrow=classic;html=1;rounded=0;exitX=1;exitY=0.3333333333333333;exitDx=0;exitDy=0;exitPerimeter=0;entryX=0;entryY=0.5;entryDx=0;entryDy=0;" parent="1" source="0Yo_I8ake6-2doRQG3Em-2" target="0Yo_I8ake6-2doRQG3Em-5" edge="1">
          <mxGeometry width="50" height="50" relative="1" as="geometry">
            <mxPoint x="470" y="350" as="sourcePoint" />
            <mxPoint x="520" y="300" as="targetPoint" />
          </mxGeometry>
        </mxCell>
        <mxCell id="0Yo_I8ake6-2doRQG3Em-7" value="Pregled poročil" style="ellipse;whiteSpace=wrap;html=1;" parent="1" vertex="1">
          <mxGeometry x="390" y="380" width="90" height="50" as="geometry" />
        </mxCell>
        <mxCell id="0Yo_I8ake6-2doRQG3Em-8" value="" style="endArrow=classic;html=1;rounded=0;exitX=1;exitY=0.3333333333333333;exitDx=0;exitDy=0;exitPerimeter=0;entryX=0;entryY=0.5;entryDx=0;entryDy=0;" parent="1" source="0Yo_I8ake6-2doRQG3Em-4" target="0Yo_I8ake6-2doRQG3Em-7" edge="1">
          <mxGeometry width="50" height="50" relative="1" as="geometry">
            <mxPoint x="470" y="350" as="sourcePoint" />
            <mxPoint x="520" y="300" as="targetPoint" />
          </mxGeometry>
        </mxCell>
        <mxCell id="0Yo_I8ake6-2doRQG3Em-9" value="Potrditev/zavtnitev poročila" style="ellipse;whiteSpace=wrap;html=1;" parent="1" vertex="1">
          <mxGeometry x="330" y="500" width="120" height="60" as="geometry" />
        </mxCell>
        <mxCell id="0Yo_I8ake6-2doRQG3Em-10" value="" style="endArrow=classic;html=1;rounded=0;exitX=1;exitY=0.3333333333333333;exitDx=0;exitDy=0;exitPerimeter=0;entryX=0;entryY=0.5;entryDx=0;entryDy=0;" parent="1" source="0Yo_I8ake6-2doRQG3Em-4" target="0Yo_I8ake6-2doRQG3Em-9" edge="1">
          <mxGeometry width="50" height="50" relative="1" as="geometry">
            <mxPoint x="170" y="390" as="sourcePoint" />
            <mxPoint x="386" y="297" as="targetPoint" />
          </mxGeometry>
        </mxCell>
        <mxCell id="0Yo_I8ake6-2doRQG3Em-11" value="Spletna aplikacija" style="text;html=1;align=center;verticalAlign=middle;whiteSpace=wrap;rounded=0;" parent="1" vertex="1">
          <mxGeometry x="280" y="20" width="110" height="30" as="geometry" />
        </mxCell>
        <mxCell id="0Yo_I8ake6-2doRQG3Em-12" value="" style="endArrow=classic;html=1;rounded=0;exitX=0.5;exitY=0;exitDx=0;exitDy=0;exitPerimeter=0;" parent="1" source="0Yo_I8ake6-2doRQG3Em-3" target="0Yo_I8ake6-2doRQG3Em-4" edge="1">
          <mxGeometry width="50" height="50" relative="1" as="geometry">
            <mxPoint x="470" y="330" as="sourcePoint" />
            <mxPoint x="520" y="280" as="targetPoint" />
          </mxGeometry>
        </mxCell>
        <mxCell id="0Yo_I8ake6-2doRQG3Em-13" value="Prijava/odjava v aplikacijo" style="ellipse;whiteSpace=wrap;html=1;" parent="1" vertex="1">
          <mxGeometry x="360" y="280" width="99" height="60" as="geometry" />
        </mxCell>
        <mxCell id="0Yo_I8ake6-2doRQG3Em-14" value="" style="endArrow=classic;html=1;rounded=0;entryX=0;entryY=0;entryDx=0;entryDy=0;" parent="1" target="0Yo_I8ake6-2doRQG3Em-13" edge="1">
          <mxGeometry width="50" height="50" relative="1" as="geometry">
            <mxPoint x="160" y="140" as="sourcePoint" />
            <mxPoint x="390" y="230" as="targetPoint" />
          </mxGeometry>
        </mxCell>
        <mxCell id="0Yo_I8ake6-2doRQG3Em-15" value="Pregled fotografij" style="ellipse;whiteSpace=wrap;html=1;" parent="1" vertex="1">
          <mxGeometry x="345" y="180" width="85" height="50" as="geometry" />
        </mxCell>
        <mxCell id="0Yo_I8ake6-2doRQG3Em-16" value="" style="endArrow=classic;html=1;rounded=0;exitX=1;exitY=0.3333333333333333;exitDx=0;exitDy=0;exitPerimeter=0;entryX=0;entryY=0.5;entryDx=0;entryDy=0;" parent="1" source="0Yo_I8ake6-2doRQG3Em-2" target="0Yo_I8ake6-2doRQG3Em-15" edge="1">
          <mxGeometry width="50" height="50" relative="1" as="geometry">
            <mxPoint x="470" y="350" as="sourcePoint" />
            <mxPoint x="520" y="300" as="targetPoint" />
          </mxGeometry>
        </mxCell>
        <mxCell id="0Yo_I8ake6-2doRQG3Em-17" value="" style="endArrow=classic;html=1;rounded=0;exitX=1;exitY=0.3333333333333333;exitDx=0;exitDy=0;exitPerimeter=0;entryX=0;entryY=0.5;entryDx=0;entryDy=0;" parent="1" source="0Yo_I8ake6-2doRQG3Em-2" target="0Yo_I8ake6-2doRQG3Em-20" edge="1">
          <mxGeometry width="50" height="50" relative="1" as="geometry">
            <mxPoint x="470" y="350" as="sourcePoint" />
            <mxPoint x="520" y="300" as="targetPoint" />
          </mxGeometry>
        </mxCell>
        <mxCell id="0Yo_I8ake6-2doRQG3Em-18" value="Beleženje" style="ellipse;whiteSpace=wrap;html=1;" parent="1" vertex="1">
          <mxGeometry x="620" y="220" width="85" height="50" as="geometry" />
        </mxCell>
        <mxCell id="0Yo_I8ake6-2doRQG3Em-19" value="" style="endArrow=classic;html=1;rounded=0;exitX=1;exitY=0.3333333333333333;exitDx=0;exitDy=0;exitPerimeter=0;entryX=0;entryY=0.5;entryDx=0;entryDy=0;" parent="1" source="0Yo_I8ake6-2doRQG3Em-2" target="0Yo_I8ake6-2doRQG3Em-20" edge="1">
          <mxGeometry width="50" height="50" relative="1" as="geometry">
            <mxPoint x="160" y="140" as="sourcePoint" />
            <mxPoint x="530" y="85" as="targetPoint" />
          </mxGeometry>
        </mxCell>
        <mxCell id="0Yo_I8ake6-2doRQG3Em-20" value="Pregled zvočnih posnetkov" style="ellipse;whiteSpace=wrap;html=1;" parent="1" vertex="1">
          <mxGeometry x="310" y="60" width="100" height="60" as="geometry" />
        </mxCell>
        <mxCell id="0Yo_I8ake6-2doRQG3Em-21" value="" style="endArrow=classic;html=1;rounded=0;exitX=1;exitY=0.3333333333333333;exitDx=0;exitDy=0;exitPerimeter=0;entryX=0;entryY=0.5;entryDx=0;entryDy=0;" parent="1" source="0Yo_I8ake6-2doRQG3Em-4" target="0Yo_I8ake6-2doRQG3Em-13" edge="1">
          <mxGeometry width="50" height="50" relative="1" as="geometry">
            <mxPoint x="550" y="350" as="sourcePoint" />
            <mxPoint x="600" y="300" as="targetPoint" />
          </mxGeometry>
        </mxCell>
        <mxCell id="0Yo_I8ake6-2doRQG3Em-22" value="" style="endArrow=classic;html=1;rounded=0;exitX=1;exitY=0.5;exitDx=0;exitDy=0;entryX=0;entryY=0;entryDx=0;entryDy=0;" parent="1" source="0Yo_I8ake6-2doRQG3Em-20" target="0Yo_I8ake6-2doRQG3Em-5" edge="1">
          <mxGeometry width="50" height="50" relative="1" as="geometry">
            <mxPoint x="470" y="350" as="sourcePoint" />
            <mxPoint x="520" y="300" as="targetPoint" />
          </mxGeometry>
        </mxCell>
        <mxCell id="0Yo_I8ake6-2doRQG3Em-23" value="&amp;lt;&amp;lt;extend&amp;gt;&amp;gt;" style="edgeLabel;html=1;align=center;verticalAlign=middle;resizable=0;points=[];" parent="0Yo_I8ake6-2doRQG3Em-22" vertex="1" connectable="0">
          <mxGeometry x="0.1813" y="-2" relative="1" as="geometry">
            <mxPoint as="offset" />
          </mxGeometry>
        </mxCell>
        <mxCell id="0Yo_I8ake6-2doRQG3Em-24" value="" style="endArrow=classic;html=1;rounded=0;exitX=1;exitY=0.5;exitDx=0;exitDy=0;entryX=0;entryY=1;entryDx=0;entryDy=0;" parent="1" source="0Yo_I8ake6-2doRQG3Em-15" target="0Yo_I8ake6-2doRQG3Em-5" edge="1">
          <mxGeometry width="50" height="50" relative="1" as="geometry">
            <mxPoint x="420" y="100" as="sourcePoint" />
            <mxPoint x="543" y="127" as="targetPoint" />
          </mxGeometry>
        </mxCell>
        <mxCell id="0Yo_I8ake6-2doRQG3Em-25" value="&amp;lt;&amp;lt;extend&amp;gt;&amp;gt;" style="edgeLabel;html=1;align=center;verticalAlign=middle;resizable=0;points=[];" parent="0Yo_I8ake6-2doRQG3Em-24" vertex="1" connectable="0">
          <mxGeometry x="0.1813" y="-2" relative="1" as="geometry">
            <mxPoint as="offset" />
          </mxGeometry>
        </mxCell>
        <mxCell id="0Yo_I8ake6-2doRQG3Em-26" value="" style="endArrow=classic;html=1;rounded=0;exitX=0.5;exitY=0;exitDx=0;exitDy=0;entryX=0.5;entryY=1;entryDx=0;entryDy=0;" parent="1" source="0Yo_I8ake6-2doRQG3Em-9" target="0Yo_I8ake6-2doRQG3Em-7" edge="1">
          <mxGeometry width="50" height="50" relative="1" as="geometry">
            <mxPoint x="470" y="350" as="sourcePoint" />
            <mxPoint x="520" y="300" as="targetPoint" />
          </mxGeometry>
        </mxCell>
        <mxCell id="0Yo_I8ake6-2doRQG3Em-27" value="&amp;lt;&amp;lt;extend&amp;gt;&amp;gt;" style="edgeLabel;html=1;align=center;verticalAlign=middle;resizable=0;points=[];" parent="0Yo_I8ake6-2doRQG3Em-26" vertex="1" connectable="0">
          <mxGeometry x="0.0222" y="-1" relative="1" as="geometry">
            <mxPoint as="offset" />
          </mxGeometry>
        </mxCell>
        <mxCell id="0Yo_I8ake6-2doRQG3Em-28" value="" style="endArrow=classic;html=1;rounded=0;exitX=0;exitY=0;exitDx=0;exitDy=0;entryX=1;entryY=1;entryDx=0;entryDy=0;" parent="1" source="0Yo_I8ake6-2doRQG3Em-18" target="0Yo_I8ake6-2doRQG3Em-5" edge="1">
          <mxGeometry width="50" height="50" relative="1" as="geometry">
            <mxPoint x="470" y="350" as="sourcePoint" />
            <mxPoint x="520" y="300" as="targetPoint" />
          </mxGeometry>
        </mxCell>
        <mxCell id="0Yo_I8ake6-2doRQG3Em-29" value="&amp;lt;&amp;lt;zabeležke&amp;gt;&amp;gt;" style="edgeLabel;html=1;align=center;verticalAlign=middle;resizable=0;points=[];" parent="0Yo_I8ake6-2doRQG3Em-28" vertex="1" connectable="0">
          <mxGeometry x="-0.0905" y="-1" relative="1" as="geometry">
            <mxPoint as="offset" />
          </mxGeometry>
        </mxCell>
      </root>
    </mxGraphModel>
  </diagram>
</mxfile>
